<svg width="146" height="16" fill="none" xmlns="http://www.w3.org/2000/svg"><path d="M6.857 6.977H2.085V12h-1.5V.625h7.047v1.234H2.084V5.75h4.774v1.227zm6.707-2.133a4.332 4.332 0 00-.71-.055c-.949 0-1.592.404-1.93 1.211v6H9.477V3.547h1.406l.024.976c.474-.755 1.146-1.132 2.015-1.132.282 0 .495.036.641.109v1.344zm1.277 2.851c0-.828.161-1.573.484-2.234.328-.662.782-1.172 1.36-1.531.583-.36 1.247-.54 1.992-.54 1.15 0 2.08.4 2.789 1.196.713.797 1.07 1.857 1.07 3.18v.101c0 .823-.159 1.563-.476 2.219a3.56 3.56 0 01-1.352 1.523c-.583.365-1.255.547-2.015.547-1.146 0-2.076-.398-2.79-1.195-.708-.797-1.062-1.852-1.062-3.164v-.102zm1.453.172c0 .938.216 1.69.648 2.258.438.568 1.021.852 1.75.852.735 0 1.318-.287 1.75-.86.433-.578.649-1.385.649-2.422 0-.927-.221-1.677-.664-2.25-.438-.578-1.021-.867-1.75-.867-.714 0-1.29.284-1.727.852-.437.567-.656 1.38-.656 2.437zm9.902-4.32l.047 1.062c.646-.812 1.49-1.218 2.531-1.218 1.787 0 2.688 1.007 2.703 3.023V12h-1.445V6.406c-.005-.61-.146-1.06-.422-1.351-.27-.292-.695-.438-1.273-.438-.47 0-.88.125-1.235.375-.354.25-.63.578-.828.985V12H24.83V3.547h1.367zM36.098 1.5v2.047h1.578v1.117h-1.578v5.242c0 .339.07.594.21.766.141.166.381.25.72.25a3.5 3.5 0 00.687-.094V12c-.38.104-.75.156-1.11.156-.645 0-1.132-.195-1.46-.586-.328-.39-.492-.945-.492-1.664V4.664h-1.54V3.547h1.54V1.5h1.445zm7.261 10.656c-1.146 0-2.078-.375-2.797-1.125-.719-.755-1.078-1.763-1.078-3.023v-.266c0-.838.159-1.586.477-2.242.322-.661.77-1.177 1.343-1.547a3.38 3.38 0 011.875-.562c1.1 0 1.953.362 2.563 1.086.61.724.914 1.76.914 3.109v.601h-5.727c.021.834.263 1.508.727 2.024.469.51 1.062.766 1.781.766.51 0 .943-.105 1.297-.313a3.26 3.26 0 00.93-.828l.883.687c-.709 1.089-1.771 1.633-3.188 1.633zm-.18-7.578c-.583 0-1.073.214-1.468.64-.396.423-.641 1.016-.735 1.782h4.235v-.11c-.042-.734-.24-1.301-.594-1.702-.354-.407-.834-.61-1.438-.61zm7.004-1.031l.047 1.062c.646-.812 1.49-1.218 2.53-1.218 1.787 0 2.688 1.007 2.704 3.023V12H54.02V6.406c-.005-.61-.146-1.06-.422-1.351-.271-.292-.695-.438-1.274-.438-.468 0-.88.125-1.234.375s-.63.578-.828.985V12h-1.445V3.547h1.367zm7.59 4.156c0-1.297.306-2.338.921-3.125.615-.792 1.42-1.187 2.414-1.187.99 0 1.774.338 2.352 1.015V0h1.445v12h-1.328l-.07-.906c-.579.708-1.383 1.062-2.414 1.062-.98 0-1.78-.4-2.399-1.203-.614-.802-.922-1.849-.922-3.14v-.11zm1.444.164c0 .959.198 1.709.594 2.25.396.542.943.813 1.64.813.917 0 1.587-.412 2.009-1.235V5.812c-.433-.796-1.097-1.195-1.992-1.195-.709 0-1.26.274-1.657.82-.396.547-.593 1.357-.593 2.43zM72.31 12V.625h3.211c.99 0 1.865.219 2.625.656a4.414 4.414 0 011.758 1.867c.417.808.628 1.735.633 2.782v.726c0 1.073-.209 2.013-.625 2.82a4.338 4.338 0 01-1.774 1.86c-.765.432-1.658.654-2.68.664H72.31zm1.5-10.14v8.913h1.578c1.157 0 2.055-.359 2.696-1.078.646-.718.968-1.742.968-3.07v-.664c0-1.292-.304-2.294-.914-3.008-.604-.719-1.463-1.083-2.578-1.094h-1.75zm12.762 10.296c-1.146 0-2.079-.375-2.797-1.125-.72-.755-1.078-1.763-1.078-3.023v-.266c0-.838.158-1.586.476-2.242.323-.661.771-1.177 1.344-1.547a3.38 3.38 0 011.875-.562c1.099 0 1.953.362 2.562 1.086.61.724.914 1.76.914 3.109v.601h-5.726c.02.834.263 1.508.726 2.024.47.51 1.063.766 1.782.766.51 0 .942-.105 1.297-.313.354-.208.664-.484.93-.828l.882.687c-.708 1.089-1.77 1.633-3.187 1.633zm-.18-7.578c-.584 0-1.073.214-1.469.64-.396.423-.64 1.016-.734 1.782h4.234v-.11c-.041-.734-.24-1.301-.594-1.702-.354-.407-.833-.61-1.437-.61zm8.316 5.461l2.094-6.492h1.476L95.247 12h-1.102l-3.062-8.453h1.476l2.149 6.492zm8.839 2.117c-1.146 0-2.078-.375-2.797-1.125-.718-.755-1.078-1.763-1.078-3.023v-.266c0-.838.159-1.586.477-2.242.323-.661.771-1.177 1.344-1.547a3.38 3.38 0 011.875-.562c1.098 0 1.953.362 2.562 1.086.609.724.914 1.76.914 3.109v.601h-5.726c.02.834.263 1.508.726 2.024.469.51 1.063.766 1.781.766.511 0 .943-.105 1.297-.313.354-.208.664-.484.93-.828l.883.687c-.709 1.089-1.771 1.633-3.188 1.633zm-.179-7.578c-.584 0-1.073.214-1.469.64-.396.423-.641 1.016-.735 1.782h4.235v-.11c-.042-.734-.24-1.301-.594-1.702-.354-.407-.833-.61-1.437-.61zM110.574 12h-1.445V0h1.445v12zm2.418-4.305c0-.828.161-1.573.484-2.234.328-.662.781-1.172 1.359-1.531.584-.36 1.248-.54 1.992-.54 1.152 0 2.081.4 2.79 1.196.713.797 1.07 1.857 1.07 3.18v.101c0 .823-.159 1.563-.477 2.219a3.559 3.559 0 01-1.351 1.523c-.584.365-1.255.547-2.016.547-1.146 0-2.075-.398-2.789-1.195-.708-.797-1.062-1.852-1.062-3.164v-.102zm1.453.172c0 .938.216 1.69.648 2.258.438.568 1.021.852 1.75.852.734 0 1.318-.287 1.75-.86.432-.578.649-1.385.649-2.422 0-.927-.222-1.677-.665-2.25-.437-.578-1.02-.867-1.75-.867-.713 0-1.289.284-1.726.852-.438.567-.656 1.38-.656 2.437zm15.675 0c0 1.287-.294 2.323-.883 3.11-.588.786-1.385 1.18-2.39 1.18-1.026 0-1.834-.326-2.422-.977v4.07h-1.446V3.547h1.321l.07.937c.589-.729 1.406-1.093 2.453-1.093 1.016 0 1.818.382 2.406 1.148.594.766.891 1.83.891 3.195v.133zm-1.445-.164c0-.953-.203-1.706-.61-2.258-.406-.552-.963-.828-1.672-.828-.875 0-1.531.388-1.968 1.164v4.04c.432.77 1.093 1.156 1.984 1.156.693 0 1.242-.274 1.648-.82.412-.553.618-1.37.618-2.454zm7.277 4.453c-1.146 0-2.079-.375-2.797-1.125-.719-.755-1.078-1.763-1.078-3.023v-.266c0-.838.158-1.586.476-2.242.323-.661.771-1.177 1.344-1.547a3.38 3.38 0 011.875-.562c1.099 0 1.953.362 2.562 1.086.61.724.914 1.76.914 3.109v.601h-5.726c.021.834.263 1.508.726 2.024.469.51 1.063.766 1.782.766.51 0 .942-.105 1.297-.313a3.25 3.25 0 00.929-.828l.883.687c-.708 1.089-1.771 1.633-3.187 1.633zm-.18-7.578c-.583 0-1.073.214-1.469.64-.396.423-.641 1.016-.734 1.782h4.234v-.11c-.042-.734-.239-1.301-.594-1.702-.354-.407-.833-.61-1.437-.61zm9.722.266a4.336 4.336 0 00-.711-.055c-.948 0-1.591.404-1.93 1.211v6h-1.445V3.547h1.406l.024.976c.474-.755 1.146-1.132 2.015-1.132.282 0 .495.036.641.109v1.344z" fill="#757575"/></svg>